<svg width="610" height="132" viewBox="0 0 610 132" fill="none" xmlns="http://www.w3.org/2000/svg">
<g clip-path="url(#clip0_1303_16)">
<path d="M125.745 5.76471C128.815 8.72471 130.835 12.6347 131.305 16.8847C131.305 18.6647 130.835 19.8447 129.775 22.0847C128.705 24.3347 115.575 47.0447 111.665 53.3147C109.415 56.9847 108.235 61.3647 108.235 65.6247C108.235 69.8847 109.415 74.2647 111.665 77.9347C115.575 84.2047 128.715 107.045 129.775 109.295C130.845 111.545 131.305 112.605 131.305 114.385C130.835 118.655 128.945 122.545 125.865 125.385C122.905 128.455 118.995 130.475 114.865 130.825C113.085 130.825 111.905 130.355 109.775 129.295C107.645 128.225 84.4551 115.445 78.1851 111.535C77.7151 111.295 77.2351 110.935 76.6551 110.715L45.6551 92.3747C46.3651 98.2847 48.9651 103.975 53.2351 108.115C54.0551 108.935 54.8951 109.645 55.8351 110.365C55.1251 110.725 54.3051 111.075 53.5851 111.545C47.3151 115.455 24.4751 128.595 22.2251 129.655C19.9751 130.725 18.9151 131.185 17.0251 131.185C12.7551 130.715 8.86507 128.825 6.02507 125.745C2.95507 122.785 0.935068 118.875 0.465068 114.625C0.575068 112.845 1.06507 111.075 1.99507 109.535C3.06507 107.285 16.1951 84.4447 20.1051 78.1747C22.3551 74.5047 23.5351 70.2447 23.5351 65.8647C23.5351 61.4847 22.3551 57.2247 20.1051 53.5547C16.1851 47.0547 2.93507 24.2247 1.97507 21.9747C1.02507 20.4447 0.555068 18.6647 0.445068 16.8847C0.915068 12.6147 2.80507 8.72471 5.88507 5.76471C8.84507 2.70471 12.7551 0.794707 17.0051 0.324707C18.7851 0.434707 20.5551 0.924707 22.2051 1.85471C24.0951 2.67471 40.7851 12.3847 49.6551 17.5947L51.6751 18.7747C52.3851 19.2447 52.9851 19.5947 53.4551 19.8447L54.4051 20.4447L85.9951 39.1347C85.2851 32.0447 81.6151 25.5347 75.9251 21.1547C76.6351 20.7947 77.4551 20.4447 78.1751 19.9747C84.4451 16.0647 107.285 2.81471 109.535 1.86471C111.075 0.904707 112.845 0.434707 114.735 0.324707C118.875 0.794707 122.785 2.68471 125.735 5.76471H125.745ZM67.5251 74.1647L74.2651 67.4247C75.2151 66.4747 75.2151 65.0647 74.2651 64.1147L67.5251 57.3747C66.5751 56.4247 65.1651 56.4247 64.2151 57.3747L57.4751 64.1147C56.5251 65.0647 56.5251 66.4747 57.4751 67.4247L64.2151 74.1647C65.0351 74.9847 66.5751 74.9847 67.5251 74.1647Z" fill="#FF694A"/>
<path d="M599.775 100.315H601.265V104.465H602.115V100.315H603.605V99.5747H599.775V100.315Z" fill="#262A38"/>
<path d="M609.395 99.5747H608.705H608.525L607.005 103.165L605.485 99.5747H605.305H604.615H604.455V104.465H605.305V101.135L606.775 104.465H607.235L608.705 101.135V104.465H609.555V99.5747H609.395Z" fill="#262A38"/>
<path d="M206.075 22.6247V52.7847C204.185 49.6947 201.455 47.2247 198.145 45.5647C194.705 43.7847 190.805 42.9647 186.895 42.9647C181.915 42.8547 176.955 44.1647 172.695 46.8747C168.555 49.5847 165.245 53.4947 163.115 57.9947C160.755 63.2147 159.575 68.8847 159.685 74.6847C159.555 80.4847 160.755 86.1547 163.115 91.4847C165.245 96.1047 168.555 99.9947 172.825 102.845C176.975 105.675 181.935 107.095 186.915 106.985C190.935 106.985 194.965 106.045 198.515 104.275C201.825 102.625 204.555 100.025 206.445 96.8247V105.935H224.555V16.6047L224.535 16.5847L206.065 22.6247H206.075ZM202.775 88.3047C200.415 91.3747 196.865 93.0347 192.375 93.0347C188.355 93.1647 184.325 91.3847 181.845 88.1847C179.375 84.9847 178.065 80.3847 178.065 74.6947C178.065 69.0047 179.355 64.6247 181.845 61.5547C184.445 58.4647 188.355 56.6947 192.375 56.9347C196.385 56.8247 200.295 58.5947 202.775 61.6647C205.265 64.7347 206.445 69.1147 206.445 74.9147C206.445 80.7147 205.135 85.2247 202.775 88.2947V88.3047Z" fill="#262A38"/>
<path d="M289.285 46.7647L289.265 46.7847C284.995 44.1847 280.035 42.7647 275.065 42.8747C271.045 42.7447 267.145 43.6947 263.595 45.5847C260.285 47.2347 257.565 49.8347 255.795 53.0347V16.5847L237.455 22.6247V105.815H255.675V96.5847C257.435 99.7647 260.165 102.365 263.475 104.035C267.025 105.925 271.055 106.865 275.075 106.745C280.035 106.855 285.015 105.435 289.145 102.725C293.415 99.8847 296.725 95.9847 298.855 91.3647C301.215 86.1647 302.395 80.3647 302.285 74.5647C302.415 68.7647 301.215 63.0747 298.855 57.8747C296.855 53.3847 293.535 49.4747 289.275 46.7547L289.285 46.7647ZM280.285 88.1747C277.815 91.3747 273.905 93.1547 269.885 92.9047C265.735 93.1447 261.835 91.3747 259.355 88.1747C256.865 85.0847 255.685 80.4647 255.685 74.7947C255.685 69.1247 256.865 64.7447 259.355 61.5447C261.955 58.3447 265.865 56.5647 269.885 56.8147C274.375 56.8147 277.805 58.3647 280.285 61.4347C282.775 64.5047 283.955 68.6547 283.955 74.5747C283.955 80.4947 282.775 84.9747 280.285 88.1747Z" fill="#262A38"/>
<path d="M330.235 89.4847C328.575 87.9547 327.635 85.4647 327.635 82.0347V58.1347L327.615 58.1147H343.235V44.3847H327.615V24.0247L309.275 29.9347V82.3847C309.275 90.1847 311.295 96.2347 315.315 100.495C319.335 104.765 325.135 106.875 332.715 106.875C336.265 106.985 339.805 106.405 343.245 105.215V91.0147C341.355 91.4847 339.225 91.8347 337.205 91.8347C334.605 91.9447 332.115 91.1247 330.225 89.4747L330.235 89.4847Z" fill="#262A38"/>
<path d="M579.395 70.0247L578.995 69.9147C572.265 68.0247 565.915 66.2347 565.915 60.6447C565.915 53.7947 573.405 53.0547 576.635 53.0547C585.815 53.0547 592.945 59.4147 594.485 60.9047L596.865 52.4247C595.945 51.5247 588.665 44.7947 576.905 44.7947C565.145 44.7947 555.995 51.8147 555.995 61.4847C555.995 73.2047 566.375 76.2247 575.535 78.8947C583.005 81.0747 589.455 82.9547 589.455 88.8747C589.455 94.0947 584.945 97.2047 577.395 97.2047C566.465 97.2047 558.145 91.0847 556.375 89.6647L554.525 98.7247L554.605 98.7947C554.695 98.8647 564.345 106.265 576.565 106.265C589.585 106.265 599.035 98.6047 599.035 88.0547C599.035 75.5647 588.155 72.4947 579.405 70.0347L579.395 70.0247Z" fill="#262A38"/>
<path d="M386.885 17.8647L375.645 21.5647V105.415H419.905V96.5247H386.885V17.8647Z" fill="#262A38"/>
<path d="M520.635 44.7748C505.805 44.7748 500.555 56.9948 500.555 56.9948V17.1948L489.685 20.7848V105.415H500.555V93.2848C500.555 93.2848 505.335 106.255 520.635 106.255C535.935 106.255 546.605 93.9248 546.605 75.5748C546.605 57.2248 535.925 44.7748 520.635 44.7748ZM518.145 97.7248C507.135 97.7248 500.555 89.4448 500.555 75.5748C500.555 56.3048 511.575 53.4248 518.145 53.4248C529.655 53.4248 535.735 61.0848 535.735 75.5748C535.735 88.8248 528.665 97.7248 518.145 97.7248Z" fill="#262A38"/>
<path d="M452.215 44.7847C441.215 44.7847 431.735 52.7547 431.735 52.7547L434.175 61.9147C434.175 61.9147 442.635 54.0447 452.505 54.0447C462.375 54.0447 464.565 60.8347 464.575 69.5147C460.195 70.3747 452.805 71.7947 447.365 72.7647C439.165 74.2247 428.395 76.9947 428.395 89.5347C428.395 100.825 437.225 106.215 447.205 106.215C456.215 106.215 462.305 99.5047 464.585 94.5847V105.405H474.325V67.9847C474.325 54.7447 468.195 44.7747 452.215 44.7747V44.7847ZM464.585 82.0647C464.585 92.0147 458.265 97.2947 449.635 97.2947C441.005 97.2947 437.585 93.4547 437.585 88.6547C437.585 83.8547 441.845 81.7547 448.265 80.6147C454.685 79.4747 464.585 77.6247 464.585 77.6247V82.0647Z" fill="#262A38"/>
</g>
<defs>
<clipPath id="clip0_1303_16">
<rect width="609.11" height="130.87" fill="white" transform="translate(0.445068 0.324707)"/>
</clipPath>
</defs>
</svg>
