<svg width="371" height="81" viewBox="0 0 371 81" fill="none" xmlns="http://www.w3.org/2000/svg">
<path d="M139.62 12.4099V67.6999H128.41V62.0599C127.24 64.0399 125.55 65.6499 123.5 66.6699C121.3 67.7699 118.81 68.3499 116.32 68.3499C113.24 68.4199 110.17 67.5399 107.6 65.7899C104.96 64.0299 102.91 61.6199 101.59 58.7599C100.13 55.4599 99.39 51.9499 99.47 48.3599C99.4 44.7699 100.13 41.2599 101.59 38.0299C102.91 35.2499 104.96 32.8299 107.52 31.1499C110.16 29.4699 113.23 28.6599 116.31 28.7299C118.73 28.7299 121.14 29.2399 123.27 30.3399C125.32 31.3699 127.01 32.8999 128.18 34.8099V16.1299L139.61 12.3899L139.62 12.4099ZM126.14 56.7899C127.6 54.8899 128.41 52.0999 128.41 48.5099C128.41 44.9199 127.68 42.2099 126.14 40.3099C124.6 38.4099 122.18 37.3099 119.7 37.3799C117.21 37.2299 114.79 38.3299 113.18 40.2399C111.64 42.1399 110.84 44.8499 110.84 48.3699C110.84 51.8899 111.65 54.7399 113.18 56.7199C114.72 58.6999 117.21 59.7999 119.7 59.7199C122.48 59.7199 124.68 58.6899 126.14 56.7899ZM179.68 31.0799C182.32 32.7599 184.37 35.1799 185.61 37.9599C187.07 41.1799 187.81 44.6999 187.73 48.2899C187.8 51.8799 187.07 55.4699 185.61 58.6899C184.29 61.5499 182.24 63.9599 179.6 65.7199C177.04 67.3999 173.96 68.2799 170.89 68.2099C168.4 68.2799 165.91 67.6999 163.71 66.5299C161.66 65.4999 159.97 63.8899 158.88 61.9199V67.6299H147.6V16.1399L158.95 12.3999V34.9599C160.05 32.9799 161.73 31.3699 163.78 30.3499C165.98 29.1799 168.39 28.5899 170.88 28.6699C173.96 28.5999 177.03 29.4799 179.67 31.0899L179.68 31.0799ZM174.11 56.7099C175.65 54.7299 176.38 51.9499 176.38 48.2899C176.38 44.6299 175.65 42.0599 174.11 40.1599C172.57 38.2599 170.45 37.2999 167.67 37.2999C165.18 37.1499 162.76 38.2499 161.15 40.2299C159.61 42.2099 158.88 44.9199 158.88 48.4299C158.88 51.9399 159.61 54.7999 161.15 56.7099C162.69 58.6899 165.1 59.7899 167.67 59.6399C170.16 59.7899 172.58 58.6899 174.11 56.7099ZM203.41 38.1099H213.08V29.6099H203.41V17.0099L192.06 20.6699V53.1099C192.06 57.9399 193.31 61.6799 195.8 64.3199C198.29 66.9599 201.88 68.2699 206.57 68.2699C208.77 68.3399 210.96 67.9799 213.09 67.2399V58.4499C211.92 58.7399 210.6 58.9599 209.35 58.9599C207.74 59.0299 206.2 58.5199 205.03 57.4999C204 56.5499 203.42 55.0099 203.42 52.8899V38.0999L203.41 38.1099ZM139.62 12.3999V67.6899H128.41V62.0499C127.24 64.0299 125.55 65.6399 123.5 66.6599C121.3 67.7599 118.81 68.3399 116.32 68.3399C113.24 68.4099 110.17 67.5299 107.6 65.7799C104.96 64.0199 102.91 61.6099 101.59 58.7499C100.13 55.4499 99.39 51.9399 99.47 48.3499C99.4 44.7599 100.13 41.2499 101.59 38.0199C102.91 35.2399 104.96 32.8199 107.52 31.1399C110.16 29.4599 113.23 28.6499 116.31 28.7199C118.73 28.7199 121.14 29.2299 123.27 30.3299C125.32 31.3599 127.01 32.8899 128.18 34.7999V16.1199L139.61 12.3799L139.62 12.3999ZM126.14 56.7799C127.6 54.8799 128.41 52.0899 128.41 48.4999C128.41 44.9099 127.68 42.1999 126.14 40.2999C124.6 38.3999 122.18 37.2999 119.7 37.3699C117.21 37.2199 114.79 38.3199 113.18 40.2299C111.64 42.1299 110.84 44.8399 110.84 48.3599C110.84 51.8799 111.65 54.7299 113.18 56.7099C114.72 58.6899 117.21 59.7899 119.7 59.7099C122.48 59.7099 124.68 58.6799 126.14 56.7799ZM179.68 31.0699C182.32 32.7499 184.37 35.1699 185.61 37.9499C187.07 41.1699 187.81 44.6899 187.73 48.2799C187.8 51.8699 187.07 55.4599 185.61 58.6799C184.29 61.5399 182.24 63.9499 179.6 65.7099C177.04 67.3899 173.96 68.2699 170.89 68.1999C168.4 68.2699 165.91 67.6899 163.71 66.5199C161.66 65.4899 159.97 63.8799 158.88 61.9099V67.6199H147.6V16.1299L158.95 12.3899V34.9499C160.05 32.9699 161.73 31.3599 163.78 30.3399C165.98 29.1699 168.39 28.5799 170.88 28.6599C173.96 28.5899 177.03 29.4699 179.67 31.0799L179.68 31.0699ZM174.11 56.6999C175.65 54.7199 176.38 51.9399 176.38 48.2799C176.38 44.6199 175.65 42.0499 174.11 40.1499C172.57 38.2499 170.45 37.2899 167.67 37.2899C165.18 37.1399 162.76 38.2399 161.15 40.2199C159.61 42.1999 158.88 44.9099 158.88 48.4199C158.88 51.9299 159.61 54.7899 161.15 56.6999C162.69 58.6799 165.1 59.7799 167.67 59.6299C170.16 59.7799 172.58 58.6799 174.11 56.6999ZM203.41 38.0999H213.08V29.5999H203.41V16.9999L192.06 20.6599V53.0999C192.06 57.9299 193.31 61.6699 195.8 64.3099C198.29 66.9499 201.88 68.2599 206.57 68.2599C208.77 68.3299 210.96 67.9699 213.09 67.2299V58.4399C211.92 58.7299 210.6 58.9499 209.35 58.9499C207.74 59.0199 206.2 58.5099 205.03 57.4899C204 56.5399 203.42 54.9999 203.42 52.8799V38.0899L203.41 38.0999ZM316.96 30.6399C312.94 30.6399 308.92 32.8199 305.63 35.6599L305.83 29.1999V14.2799L299.73 17.8999V67.6899H305.16V63.8899C308.36 66.7799 312.29 68.5099 315.65 68.5099C323.9 68.5099 331.27 61.3299 331.27 48.9999C331.29 37.8799 326.28 30.6399 316.96 30.6399ZM324.62 53.2699C324.48 55.1799 323.98 57.0499 323.14 58.7699C322.82 59.3699 322.45 59.9499 322.03 60.4799C321.48 61.1399 320.83 61.6999 320.1 62.1499C318.62 62.9899 316.94 63.4099 315.24 63.3599H314.91C313.32 63.3599 311.76 62.9499 310.38 62.1599C309.65 61.7099 309 61.1499 308.45 60.4899C308.03 59.9599 307.65 59.3799 307.34 58.7799C306.47 56.9899 305.96 55.0499 305.84 53.0699C305.72 51.8999 305.68 50.7099 305.68 49.5799C305.68 48.4499 305.73 47.2499 305.84 46.0899C305.96 44.0999 306.46 42.1499 307.33 40.3599C307.57 39.9099 307.84 39.4799 308.13 39.0599L308.43 38.6699C308.98 38.0099 309.63 37.4499 310.36 36.9999C311.85 36.1699 313.54 35.7699 315.24 35.8299H315.37C315.76 35.8299 316.15 35.8299 316.55 35.8999L317.08 35.9699C317.29 35.9999 317.49 36.0399 317.7 36.0899L318.01 36.1599L318.23 36.2099L318.6 36.3299C319.13 36.5099 319.64 36.7499 320.12 37.0399C320.85 37.4899 321.5 38.0499 322.05 38.7099C322.47 39.2199 322.84 39.7799 323.16 40.3599C324.46 42.6999 324.83 46.3599 324.83 49.5699C324.83 50.8099 324.77 52.0499 324.65 53.2799L324.62 53.2699ZM238.03 62.3899V18.9799V14.3299L231.83 18.0999V18.9499V67.6499H259.29V62.3999H238.03V62.3899ZM262.78 58.3099C262.78 50.4499 269.56 46.5399 284.94 44.8499C284.94 40.2099 283.38 35.7299 277.49 35.7299C273.32 35.7299 269.56 37.6999 266.73 39.5999L264.34 35.4199C267.66 33.2399 272.72 30.6999 278.52 30.6999C287.33 30.6999 291.05 36.5599 291.05 45.5399V67.6799H285.42V63.3599C281.98 66.2199 277.76 68.5599 273.29 68.5599C267.32 68.5599 262.79 64.8499 262.79 58.2999L262.78 58.3099ZM284.94 56.0199C284.94 55.0999 284.73 54.1999 284.33 53.3799C283.9 52.5699 283.37 51.8599 282.69 51.2599C281.97 50.6999 281.41 50.3499 280.42 50.0599C279.52 49.8699 278.33 49.9699 277.44 50.1899C271.1 51.8499 268.74 54.3899 268.74 57.8799C268.74 61.9799 271.53 63.6599 275.08 63.6599C277.74 63.6599 280.05 62.6599 282.55 60.8299C283.29 60.2699 283.9 59.5499 284.31 58.7099C284.72 57.8799 284.94 56.9599 284.93 56.0299L284.94 56.0199ZM334.12 63.5399L337.13 59.5199C340.26 62.0399 343.47 63.7899 347.78 63.7899C352.51 63.7899 354.87 61.2599 354.87 58.1899C354.87 54.4799 350.61 52.8299 346.61 51.3499C341.56 49.5399 335.85 47.0099 335.85 40.9299C335.85 34.8499 340.48 30.6799 348.3 30.6799C352.39 30.7399 356.34 32.1699 359.52 34.7399L356.6 38.6499C354.11 36.8399 351.57 35.4499 348.37 35.4499C343.84 35.4499 341.73 37.8699 341.73 40.6199C341.73 44.0499 345.65 45.3599 349.74 46.8799C354.94 48.8399 360.74 50.9499 360.74 57.8199C360.74 63.6799 356.1 68.5499 347.58 68.5499C342.65 68.4599 337.91 66.6899 334.12 63.5399Z" fill="white"/>
<path d="M78.4699 3.37001C80.3699 5.20001 81.6199 7.62 81.9099 10.25C81.9099 11.35 81.6199 12.08 80.9599 13.47C80.2999 14.86 72.1699 28.92 69.7499 32.8C68.3599 35.07 67.6299 37.78 67.6299 40.42C67.6299 43.06 68.3599 45.77 69.7499 48.04C72.1699 51.92 80.2999 66.06 80.9599 67.45C81.6199 68.84 81.9099 69.5 81.9099 70.6C81.6199 73.24 80.4499 75.65 78.5399 77.41C76.7099 79.31 74.2899 80.56 71.7299 80.78C70.6299 80.78 69.8999 80.49 68.5799 79.83C67.2599 79.17 52.9099 71.26 49.0299 68.84C48.7399 68.69 48.4399 68.47 48.0799 68.33L28.8899 56.98C29.3299 60.64 30.9399 64.16 33.5799 66.72C34.0899 67.23 34.6099 67.67 35.1899 68.11C34.7499 68.33 34.2399 68.55 33.7999 68.84C29.9199 71.26 15.7799 79.39 14.3899 80.05C12.9999 80.71 12.3399 81 11.1699 81C8.52992 80.71 6.11992 79.54 4.35992 77.63C2.45992 75.8 1.20992 73.38 0.919922 70.75C0.989922 69.65 1.28993 68.55 1.86993 67.6C2.52993 66.21 10.6599 52.07 13.0799 48.19C14.4699 45.92 15.1999 43.28 15.1999 40.57C15.1999 37.86 14.4699 35.22 13.0799 32.95C10.6599 28.92 2.45993 14.79 1.86993 13.4C1.27993 12.45 0.989922 11.35 0.919922 10.25C1.20992 7.61 2.37992 5.20001 4.28992 3.37001C6.11992 1.47001 8.53992 0.29 11.1699 0C12.2699 0.07 13.3699 0.369997 14.3899 0.949997C15.5599 1.46 25.8899 7.47 31.3799 10.69L32.6299 11.42C33.0699 11.71 33.4399 11.93 33.7299 12.08L34.3199 12.45L53.8699 24.02C53.4299 19.63 51.1599 15.6 47.6399 12.89C48.0799 12.67 48.5899 12.45 49.0299 12.16C52.9099 9.74 67.0499 1.54 68.4399 0.949997C69.3899 0.359997 70.4899 0.07 71.6599 0C74.2199 0.29 76.6399 1.46001 78.4699 3.37001ZM42.4399 45.7L46.6099 41.53C47.1999 40.94 47.1999 40.07 46.6099 39.48L42.4399 35.31C41.8499 34.72 40.9799 34.72 40.3899 35.31L36.2199 39.48C35.6299 40.07 35.6299 40.94 36.2199 41.53L40.3899 45.7C40.8999 46.21 41.8499 46.21 42.4399 45.7Z" fill="#FF694A"/>
<path d="M370.12 64.3599L368.91 67.7399H368.47L367.26 64.3599V67.7399H366.49V63.1299H367.45L368.69 66.5599L369.93 63.1299H370.89V67.7399H370.12V64.3599Z" fill="white"/>
<path d="M365.81 63.8199H364.54V67.7399H363.76V63.8199H362.49V63.1299H365.81V63.8199Z" fill="white"/>
</svg>
